<?xml version="1.0" encoding="utf-8"?>
<!-- Generator: Adobe Illustrator 25.3.1, SVG Export Plug-In . SVG Version: 6.00 Build 0)  -->
<svg version="1.1" id="Layer_1" xmlns="http://www.w3.org/2000/svg" xmlns:xlink="http://www.w3.org/1999/xlink" x="0px" y="0px"
	 viewBox="0 0 100 100" style="enable-background:new 0 0 100 100;" xml:space="preserve">
<path d="M50,0C22.4,0,0,22.4,0,50s22.4,50,50,50s50-22.4,50-50S77.6,0,50,0z M69.1,66.3c0.8,0.8,0.8,2,0,2.8
	c-0.4,0.4-0.9,0.5-1.4,0.5c-0.5,0-1.1-0.1-1.4-0.5L50,52.8L33.7,69.1c-0.4,0.4-0.9,0.5-1.4,0.5c-0.5,0-1.1-0.1-1.4-0.5
	c-0.8-0.8-0.8-2,0-2.8L47.2,50L30.9,33.7c-0.8-0.8-0.8-2,0-2.8c0.8-0.8,2-0.8,2.8,0L50,47.2l16.3-16.3c0.8-0.8,2-0.8,2.8,0
	c0.8,0.8,0.8,2,0,2.8L52.8,50L69.1,66.3z"/>
</svg>
