<?xml version="1.0" encoding="utf-8"?>
<!-- Generator: Adobe Illustrator 25.3.1, SVG Export Plug-In . SVG Version: 6.00 Build 0)  -->
<svg version="1.1" id="Layer_1" xmlns="http://www.w3.org/2000/svg" xmlns:xlink="http://www.w3.org/1999/xlink" x="0px" y="0px"
	 viewBox="0 0 100 100" style="enable-background:new 0 0 100 100;" xml:space="preserve">
<path d="M0,50L0,50c0,27.6,22.4,50,50,50l0,0c27.6,0,50-22.4,50-50l0,0c0-27.6-22.4-50-50-50l0,0C22.4,0,0,22.4,0,50z M25.5,51.2
	c-0.7-0.7-0.7-1.8,0-2.4L41.3,33c0.1-0.1,0.2-0.2,0.3-0.3c0.8-0.6,1.9-0.5,2.5,0.3s0.5,1.9-0.3,2.5L31.1,48.2h42.2c0,0,0,0,0,0
	c1,0,1.7,0.8,1.7,1.8c0,1-0.8,1.8-1.8,1.8H31.1l12.8,12.8c0.7,0.7,0.7,1.8,0,2.5c0,0,0,0,0,0c-0.7,0.7-1.8,0.7-2.5,0L25.5,51.2
	C25.5,51.2,25.5,51.2,25.5,51.2z"/>
</svg>
