<?xml version="1.0" encoding="utf-8"?>
<!-- Generator: Adobe Illustrator 25.3.1, SVG Export Plug-In . SVG Version: 6.00 Build 0)  -->
<svg version="1.1" id="Layer_1" xmlns="http://www.w3.org/2000/svg" xmlns:xlink="http://www.w3.org/1999/xlink" x="0px" y="0px"
	 viewBox="0 0 100 100" style="enable-background:new 0 0 100 100;" xml:space="preserve">
<path d="M50,0L50,0C22.4,0,0,22.4,0,50l0,0c0,27.6,22.4,50,50,50l0,0c27.6,0,50-22.4,50-50l0,0C100,22.4,77.6,0,50,0z M74.5,51.2
	L58.7,67.1c-0.7,0.7-1.8,0.7-2.5,0c0,0,0,0,0,0c-0.7-0.7-0.7-1.8,0-2.5l12.8-12.8H26.8c-1,0-1.8-0.8-1.8-1.8c0-1,0.8-1.8,1.7-1.8
	c0,0,0,0,0,0h42.2L56.2,35.4c-0.8-0.6-0.9-1.7-0.3-2.5s1.7-0.9,2.5-0.3c0.1,0.1,0.2,0.2,0.3,0.3l15.8,15.8
	C75.1,49.5,75.1,50.6,74.5,51.2C74.5,51.2,74.5,51.2,74.5,51.2z"/>
</svg>
