<?xml version="1.0" encoding="utf-8"?>
<!-- Generator: Adobe Illustrator 22.1.0, SVG Export Plug-In . SVG Version: 6.00 Build 0)  -->
<svg version="1.1" id="Layer_1" xmlns="http://www.w3.org/2000/svg" xmlns:xlink="http://www.w3.org/1999/xlink" x="0px" y="0px"
	 viewBox="0 0 32.7 29" style="enable-background:new 0 0 32.7 29;" xml:space="preserve">
<style type="text/css">
	.st0{fill:#FFFFFF;}
</style>
<path class="st0" d="M9.3,0C3.7,0,0,4.6,0,9.7c0,4.8,2.7,8.9,6,12.2c3.3,3.3,7.3,5.7,10,7.1c0.2,0.1,0.5,0.1,0.7,0
	c2.7-1.4,6.7-3.8,10-7.1c3.3-3.3,6-7.4,6-12.2C32.7,4.6,29,0,23.4,0c-3.3,0-5.5,1.7-7.1,3.9C14.8,1.7,12.6,0,9.3,0 M9.3,1.5
	c3.2,0,4.9,1.6,6.4,4.1c0.2,0.4,0.7,0.5,1,0.3c0.1-0.1,0.2-0.2,0.3-0.3c1.5-2.5,3.2-4.1,6.4-4.1c4.8,0,7.8,3.8,7.8,8.2
	c0,4.2-2.4,8-5.6,11.1c-3,3-6.7,5.3-9.3,6.6c-2.6-1.4-6.2-3.6-9.3-6.6c-3.2-3.1-5.6-6.9-5.6-11.1C1.5,5.3,4.5,1.5,9.3,1.5"/>
</svg>
