<?xml version="1.0" encoding="utf-8"?>
<!-- Generator: Adobe Illustrator 22.1.0, SVG Export Plug-In . SVG Version: 6.00 Build 0)  -->
<svg version="1.1" id="Layer_1" xmlns="http://www.w3.org/2000/svg" xmlns:xlink="http://www.w3.org/1999/xlink" x="0px" y="0px"
	 viewBox="0 0 16.1 19.9" style="enable-background:new 0 0 16.1 19.9;" xml:space="preserve">
<g>
	<path d="M16.1,19.2L14.7,6.1c0-0.3-0.3-0.5-0.6-0.5H12V4c0-2.2-1.8-4-4-4s-4,1.8-4,4v1.6H2c-0.3,0-0.6,0.2-0.6,0.5L0,19.3
		c0,0.2,0,0.3,0.2,0.5c0.1,0.1,0.3,0.2,0.4,0.2h14.9c0.3,0,0.6-0.3,0.6-0.6C16.1,19.3,16.1,19.2,16.1,19.2z M8,1.2
		c1.5,0,2.8,1.2,2.8,2.8v1.6H5.3V4C5.3,2.4,6.5,1.2,8,1.2z M1.2,18.7l1.3-12h1.5v1.2c0,0.3,0.3,0.6,0.6,0.6c0.3,0,0.6-0.3,0.6-0.6
		V6.7h5.6v1.2c0,0.3,0.3,0.6,0.6,0.6c0.3,0,0.6-0.3,0.6-0.6V6.7h1.5l1.3,12H1.2z"/>
</g>
</svg>
