<?xml version="1.0" encoding="utf-8"?>
<!-- Generator: Adobe Illustrator 24.3.0, SVG Export Plug-In . SVG Version: 6.00 Build 0)  -->
<svg version="1.1" id="Layer_1" xmlns="http://www.w3.org/2000/svg" xmlns:xlink="http://www.w3.org/1999/xlink" x="0px" y="0px"
	 viewBox="0 0 48.6 50" style="enable-background:new 0 0 48.6 50;" xml:space="preserve">
<style type="text/css">
	.st0{fill-rule:evenodd;clip-rule:evenodd;}
</style>
<desc>Created with Sketch.</desc>
<g>
	<g>
		<path class="st0" d="M0.1,33.3c-0.2-0.5,0.1-1.1,0.6-1.3c0.5-0.2,1.1,0.1,1.3,0.6C5.2,41.8,13.8,48,23.6,48c12.7,0,23-10.3,23-23
			S36.3,2,23.6,2C13.8,2,5.2,8.2,1.9,17.3c-0.2,0.5-0.8,0.8-1.3,0.6c-0.5-0.2-0.8-0.8-0.6-1.3C3.6,6.8,13,0,23.6,0
			c13.8,0,25,11.2,25,25s-11.2,25-25,25C13,50,3.6,43.2,0.1,33.3z M35.9,25.7l-12.1,12c-0.9,0.9-2.4-0.5-1.4-1.4l9.6-9.6
			c0.4-0.4,0.3-0.7-0.3-0.7H7.6c-0.5,0-1-0.4-1-1c0-0.6,0.4-1,1-1h24.1c0.5,0,0.7-0.3,0.3-0.7l-9.6-9.6c-0.9-0.9,0.5-2.4,1.4-1.4
			l12.1,12C36.3,24.7,36.3,25.3,35.9,25.7z"/>
	</g>
</g>
</svg>
