<?xml version="1.0" encoding="utf-8"?>
<!-- Generator: Adobe Illustrator 24.3.0, SVG Export Plug-In . SVG Version: 6.00 Build 0)  -->
<svg version="1.1" id="Layer_1" xmlns="http://www.w3.org/2000/svg" xmlns:xlink="http://www.w3.org/1999/xlink" x="0px" y="0px"
	 viewBox="0 0 15.02 17.8" style="enable-background:new 0 0 15.02 17.8;" xml:space="preserve">
<path d="M7.73,9.46c2.5-0.11,4.51-2.2,4.51-4.73C12.24,2.11,10.13,0,7.51,0S2.78,2.11,2.78,4.73c0,2.53,2,4.59,4.51,4.73
	C3.17,9.6,0,12.88,0,17.25c0,0.31,0.25,0.56,0.56,0.56c0.31,0,0.56-0.25,0.56-0.56c0,0,0,0,0,0c0-3.89,2.76-6.67,6.4-6.67
	s6.4,2.78,6.4,6.67c0,0,0,0,0,0c0,0.31,0.25,0.56,0.56,0.56c0.31,0,0.56-0.25,0.56-0.56C15.02,12.88,11.85,9.6,7.73,9.46z
	 M3.89,4.76c0-2,1.61-3.62,3.62-3.62s3.62,1.61,3.62,3.62c0,2-1.61,3.62-3.62,3.62S3.89,6.73,3.89,4.76z"/>
</svg>
