<?xml version="1.0" encoding="utf-8"?>
<!-- Generator: Adobe Illustrator 22.1.0, SVG Export Plug-In . SVG Version: 6.00 Build 0)  -->
<svg version="1.1" id="Layer_1" xmlns="http://www.w3.org/2000/svg" xmlns:xlink="http://www.w3.org/1999/xlink" x="0px" y="0px"
	 viewBox="0 0 64 17.1" style="enable-background:new 0 0 64 17.1;" xml:space="preserve">
<style type="text/css">
	.st0{fill:#009CDE;}
	.st1{fill:#003087;}
</style>
<g>
	<path class="st0" d="M43.8,4.7c-0.3,1.8-1.6,1.8-3,1.8h-0.8l0.5-3.3c0-0.2,0.2-0.3,0.4-0.3h0.3c0.9,0,1.7,0,2.2,0.5
		C43.8,3.6,43.9,4,43.8,4.7 M43.2,0h-5c-0.3,0-0.6,0.2-0.7,0.6l-2,12.8c0,0.2,0.1,0.4,0.3,0.5c0,0,0,0,0.1,0h2.6
		c0.2,0,0.4-0.2,0.5-0.4l0.6-3.6c0.1-0.3,0.3-0.6,0.7-0.6h1.6c3.3,0,5.2-1.6,5.7-4.7c0.2-1.4,0-2.5-0.6-3.2C46.1,0.4,44.9,0,43.2,0"
		/>
	<path class="st1" d="M8.3,4.7C8,6.4,6.6,6.4,5.3,6.4H4.5l0.5-3.3c0-0.2,0.2-0.3,0.4-0.3h0.3c0.9,0,1.7,0,2.2,0.5
		C8.3,3.6,8.4,4,8.3,4.7 M7.7,0h-5C2.4,0,2.1,0.2,2,0.6L0,13.3c0,0.2,0.1,0.4,0.3,0.5c0,0,0,0,0.1,0h2.4c0.3,0,0.6-0.2,0.7-0.6
		L4,9.8c0.1-0.3,0.3-0.6,0.7-0.6h1.6c3.3,0,5.2-1.6,5.7-4.7c0.2-1.4,0-2.5-0.6-3.2C10.6,0.4,9.3,0,7.7,0 M19.2,9.2
		c-0.2,1.4-1.3,2.3-2.7,2.3c-0.7,0-1.2-0.2-1.6-0.6c-0.4-0.4-0.5-1-0.4-1.7c0.2-1.4,1.3-2.3,2.7-2.3c0.7,0,1.2,0.2,1.6,0.6
		C19.2,8,19.3,8.6,19.2,9.2 M22.6,4.6h-2.4c-0.2,0-0.4,0.1-0.4,0.4l-0.1,0.7l-0.2-0.2c-0.5-0.7-1.7-1-2.8-1c-2.6,0-4.9,2-5.3,4.8
		c-0.2,1.4,0.1,2.7,0.9,3.7c0.7,0.9,1.8,1.2,3,1.2c2.1,0,3.3-1.4,3.3-1.4l-0.1,0.7c0,0.2,0.1,0.4,0.3,0.5c0,0,0,0,0.1,0H21
		c0.3,0,0.6-0.2,0.7-0.6L23,5.1C23,4.9,22.8,4.6,22.6,4.6C22.6,4.6,22.6,4.6,22.6,4.6"/>
	<path class="st0" d="M54.7,9.2c-0.2,1.4-1.3,2.3-2.7,2.3c-0.7,0-1.2-0.2-1.6-0.6c-0.4-0.4-0.5-1-0.4-1.7c0.2-1.4,1.3-2.3,2.7-2.3
		c0.7,0,1.2,0.2,1.6,0.6C54.7,8,54.8,8.6,54.7,9.2 M58.1,4.6h-2.4c-0.2,0-0.4,0.1-0.4,0.4l-0.1,0.7L55,5.4c-0.5-0.7-1.7-1-2.8-1
		c-2.6,0-4.9,2-5.3,4.8c-0.2,1.4,0.1,2.7,0.9,3.7c0.7,0.9,1.8,1.2,3,1.2c2.1,0,3.3-1.4,3.3-1.4l-0.1,0.7c0,0.2,0.1,0.4,0.3,0.5
		c0,0,0,0,0.1,0h2.1c0.3,0,0.6-0.2,0.7-0.6l1.3-8.2C58.5,4.9,58.4,4.6,58.1,4.6C58.1,4.6,58.1,4.6,58.1,4.6"/>
	<path class="st1" d="M35.3,4.6h-2.4c-0.2,0-0.4,0.1-0.6,0.3L29,9.8l-1.4-4.7c-0.1-0.3-0.4-0.5-0.7-0.5h-2.4c-0.2,0-0.4,0.2-0.4,0.4
		c0,0,0,0.1,0,0.1l2.6,7.7l-2.5,3.5c-0.1,0.2-0.1,0.4,0.1,0.6c0.1,0,0.2,0.1,0.2,0.1h2.4c0.2,0,0.4-0.1,0.6-0.3l8-11.5
		c0.1-0.2,0.1-0.4-0.1-0.6C35.4,4.6,35.3,4.6,35.3,4.6"/>
	<path class="st0" d="M60.9,0.4l-2,13c0,0.2,0.1,0.4,0.3,0.5c0,0,0,0,0.1,0h2.1c0.3,0,0.6-0.2,0.7-0.6l2-12.8C64,0.3,63.9,0,63.7,0
		c0,0,0,0-0.1,0h-2.3C61.1,0,60.9,0.1,60.9,0.4"/>
</g>
</svg>
