<?xml version="1.0" encoding="utf-8"?>
<!-- Generator: Adobe Illustrator 22.1.0, SVG Export Plug-In . SVG Version: 6.00 Build 0)  -->
<svg version="1.1" id="Layer_1" xmlns="http://www.w3.org/2000/svg" xmlns:xlink="http://www.w3.org/1999/xlink" x="0px" y="0px"
	 viewBox="0 0 21 19.8" style="enable-background:new 0 0 21 19.8;" xml:space="preserve">
<path d="M20.7,18.6L13.4,12c1.2-1.5,1.7-3.5,1.4-5.6c-0.6-4.1-4.4-6.9-8.4-6.3C2.3,0.7-0.5,4.4,0.1,8.5c0.6,4.1,4.4,6.9,8.4,6.3
	c1.5-0.2,2.9-0.9,4-1.9l7.4,6.7c0.3,0.2,0.7,0.2,1,0C21,19.3,21,18.9,20.7,18.6 M11.4,12c-0.8,0.8-1.9,1.3-3.1,1.4
	C5,13.9,1.9,11.6,1.4,8.3C1,5,3.3,1.9,6.6,1.4C9.9,1,13,3.3,13.4,6.6c0.2,1.6-0.2,3.2-1.1,4.4C12.1,11.4,11.8,11.7,11.4,12"/>
</svg>
