<?xml version="1.0" encoding="utf-8"?>
<!-- Generator: Adobe Illustrator 22.1.0, SVG Export Plug-In . SVG Version: 6.00 Build 0)  -->
<svg version="1.1" id="katman_1" xmlns="http://www.w3.org/2000/svg" xmlns:xlink="http://www.w3.org/1999/xlink" x="0px" y="0px"
	 viewBox="0 0 96 28.5" style="enable-background:new 0 0 96 28.5;" xml:space="preserve">
<style type="text/css">
	.st0{fill:#B2FCE4;}
</style>
<g>
	<g>
		<path class="st0" d="M81.8,28.5H14.2C6.4,28.5,0,22.1,0,14.2v0C0,6.4,6.4,0,14.2,0l67.5,0C89.6,0,96,6.4,96,14.2v0
			C96,22.1,89.6,28.5,81.8,28.5z"/>
	</g>
	<g>
		<path d="M16,14.1c0-1.3-1-2.2-2.2-2.2s-2.2,0.9-2.2,2.2c0,1.3,1,2.2,2.2,2.2S16,15.4,16,14.1z M16,17.9v-1
			c-0.6,0.7-1.5,1.1-2.5,1.1c-2.2,0-3.8-1.7-3.8-3.9s1.7-4,3.9-4c1,0,1.9,0.4,2.5,1.1v-1H18v7.7L16,17.9L16,17.9z"/>
		<path d="M27.4,16.2c-0.7,0-0.9-0.2-0.9-0.9v-3.4h1.3v-1.7h-1.3V8.4h-2v1.9H22V9.8c0-0.6,0.3-0.9,1-0.9h0.4V7.4h-1
			C20.8,7.4,20,8,20,9.6v0.7h-1.1v1.7H20v6h2v-6h2.6v3.7c0,1.6,0.6,2.2,2.2,2.2h1v-1.7L27.4,16.2L27.4,16.2z"/>
		<path d="M34.6,13.4c-0.1-1-1-1.6-2-1.6c-1,0-1.8,0.6-2,1.6H34.6z M30.6,14.6c0.1,1.1,1,1.8,2,1.8c0.8,0,1.5-0.4,1.9-1h2
			c-0.5,1.6-2,2.7-4,2.7c-2.4,0-4.1-1.6-4.1-3.9s1.8-4,4.1-4c2.4,0,4.1,1.7,4.1,4c0,0.2,0,0.3,0,0.5L30.6,14.6L30.6,14.6z"/>
		<path d="M49.4,14.1c0-1.2-1-2.2-2.2-2.2c-1.2,0-2.2,0.9-2.2,2.2c0,1.3,1,2.2,2.2,2.2C48.5,16.3,49.4,15.3,49.4,14.1z M43.2,10.3h2
			v1c0.6-0.7,1.5-1.1,2.5-1.1c2.1,0,3.8,1.7,3.8,3.9c0,2.3-1.7,4-3.9,4c-1,0-1.8-0.4-2.4-1v4h-2L43.2,10.3L43.2,10.3z"/>
		<path d="M58.4,14.1c0-1.3-1-2.2-2.2-2.2s-2.2,0.9-2.2,2.2c0,1.3,1,2.2,2.2,2.2C57.5,16.3,58.4,15.4,58.4,14.1z M58.5,17.9v-1
			C57.9,17.6,57,18,56,18c-2.2,0-3.8-1.7-3.8-3.9s1.7-4,3.9-4c1,0,1.9,0.4,2.5,1.1v-1h2v7.7L58.5,17.9L58.5,17.9z"/>
		<path d="M39.6,11c0,0,0.5-0.9,1.7-0.9c0.5,0,0.9,0.2,0.9,0.2v2c0,0-0.7-0.4-1.4-0.3c-0.7,0.1-1.1,0.7-1.1,1.5v4.5h-2v-7.7h2
			L39.6,11L39.6,11z"/>
		<path d="M69.5,10.3L64.6,21h-2.1l1.9-4.2l-3.3-6.6h2.4l1.9,4.4l2-4.4H69.5z"/>
		<path d="M85.2,10.1l-4.9-2.7c-1.4-0.8-3.2,0.2-3.2,1.8v0.3c0,0.3,0.1,0.5,0.4,0.6l0.9,0.5c0.3,0.2,0.6,0,0.6-0.3V9.5
			c0-0.3,0.4-0.6,0.7-0.4l4.2,2.4c0.3,0.2,0.3,0.6,0,0.8l-4.2,2.4c-0.3,0.2-0.7,0-0.7-0.4v-0.4c0-1.6-1.8-2.6-3.2-1.8l-4.9,2.7
			c-1.4,0.8-1.4,2.8,0,3.6l4.9,2.7c1.4,0.8,3.2-0.2,3.2-1.8V19c0-0.3-0.1-0.5-0.4-0.6l-0.9-0.5c-0.3-0.2-0.6,0-0.6,0.3v0.7
			c0,0.3-0.4,0.6-0.7,0.4L72.2,17c-0.3-0.2-0.3-0.6,0-0.8l4.2-2.4c0.3-0.2,0.7,0,0.7,0.4v0.4c0,1.6,1.8,2.6,3.2,1.8l4.9-2.7
			C86.6,12.9,86.6,10.9,85.2,10.1z"/>
	</g>
</g>
</svg>
