<?xml version="1.0" encoding="utf-8"?>
<!-- Generator: Adobe Illustrator 22.1.0, SVG Export Plug-In . SVG Version: 6.00 Build 0)  -->
<svg version="1.1" id="Layer_1" xmlns="http://www.w3.org/2000/svg" xmlns:xlink="http://www.w3.org/1999/xlink" x="0px" y="0px"
	 viewBox="0 0 42.4 42.4" style="enable-background:new 0 0 42.4 42.4;" xml:space="preserve">
<g>
	<g>
		<path d="M32.4,7.6c-1.4,0-2.5,1.1-2.5,2.5c0,1.4,1.1,2.5,2.5,2.5c1.4,0,2.5-1.1,2.5-2.5C34.9,8.7,33.8,7.6,32.4,7.6z"/>
		<path d="M21.4,10.8c-5.8,0-10.4,4.7-10.4,10.4c0,5.8,4.7,10.4,10.4,10.4c5.8,0,10.4-4.7,10.4-10.4C31.8,15.4,27.1,10.8,21.4,10.8z
			 M21.4,27.9c-3.7,0-6.7-3-6.7-6.7s3-6.7,6.7-6.7c3.7,0,6.7,3,6.7,6.7S25.1,27.9,21.4,27.9z"/>
		<path d="M29.7,42.4H12.7C5.7,42.4,0,36.7,0,29.7V12.7C0,5.7,5.7,0,12.7,0h16.9c7,0,12.7,5.7,12.7,12.7v16.9
			C42.4,36.7,36.7,42.4,29.7,42.4z M12.7,4C7.9,4,4,7.9,4,12.7v16.9c0,4.8,3.9,8.7,8.7,8.7h16.9c4.8,0,8.7-3.9,8.7-8.7V12.7
			c0-4.8-3.9-8.7-8.7-8.7H12.7z"/>
	</g>
</g>
</svg>
