<?xml version="1.0" encoding="utf-8"?>
<!-- Generator: Adobe Illustrator 22.1.0, SVG Export Plug-In . SVG Version: 6.00 Build 0)  -->
<svg version="1.1" id="Layer_1" xmlns="http://www.w3.org/2000/svg" xmlns:xlink="http://www.w3.org/1999/xlink" x="0px" y="0px"
	 viewBox="0 0 14.5 14.5" style="enable-background:new 0 0 14.5 14.5;" xml:space="preserve">
<g>
	<path d="M14.5,7.2c0,4-3.2,7.2-7.2,7.2S0,11.2,0,7.2C0,7.2,0,7,0.1,6.9c0.1-0.2,0.4-0.4,0.6-0.4c0.4,0,0.7,0.3,0.7,0.7
		c0,3.2,2.6,5.9,5.9,5.9s5.9-2.6,5.9-5.9c0-3.2-2.6-5.9-5.9-5.9c-0.4,0-0.7-0.3-0.7-0.7C6.5,0.3,6.8,0,7.2,0
		C11.2,0,14.5,3.2,14.5,7.2z"/>
</g>
<g>
	<path d="M1.8,5C1.8,5.2,1.5,5.4,1.2,5.4c-0.1,0-0.2,0-0.2,0C0.8,5.3,0.7,5.1,0.6,5c-0.1-0.2-0.1-0.4,0-0.5c0.1-0.2,0.2-0.3,0.3-0.4
		C1.1,4,1.3,4,1.5,4.1C1.8,4.2,2,4.6,1.8,5z"/>
</g>
<g>
	<path d="M5.1,1.8C5,1.8,5,1.8,4.9,1.8c-0.3,0-0.6-0.2-0.6-0.5c0-0.1,0-0.3,0-0.5c0.1-0.2,0.2-0.3,0.4-0.4c0.2-0.1,0.3-0.1,0.5,0
		c0.2,0.1,0.3,0.2,0.4,0.4C5.7,1.2,5.5,1.6,5.1,1.8z"/>
</g>
<g>
	<path d="M3.2,3C3,3.1,2.9,3.2,2.7,3.2C2.5,3.2,2.3,3.1,2.2,3C2.1,2.9,2,2.7,2,2.5C2,2.3,2.1,2.2,2.2,2c0.3-0.3,0.7-0.3,1,0l0,0
		C3.4,2.3,3.4,2.8,3.2,3z"/>
</g>
<g>
	<path d="M9.7,9.7C9.6,9.9,9.4,9.9,9.2,9.9S8.9,9.9,8.8,9.7l-2-2c-0.1,0-0.1-0.1-0.1-0.1C6.5,7.5,6.5,7.3,6.5,7.2V3.8
		c0-0.4,0.3-0.7,0.7-0.7s0.7,0.3,0.7,0.7V7l1.8,1.8C10,9,10,9.5,9.7,9.7z"/>
</g>
</svg>
