<?xml version="1.0" encoding="utf-8"?>
<!-- Generator: Adobe Illustrator 22.1.0, SVG Export Plug-In . SVG Version: 6.00 Build 0)  -->
<svg version="1.1"
	 id="Layer_1" xmlns:cc="http://creativecommons.org/ns#" xmlns:dc="http://purl.org/dc/elements/1.1/" xmlns:inkscape="http://www.inkscape.org/namespaces/inkscape" xmlns:rdf="http://www.w3.org/1999/02/22-rdf-syntax-ns#" xmlns:sodipodi="http://sodipodi.sourceforge.net/DTD/sodipodi-0.dtd" xmlns:svg="http://www.w3.org/2000/svg"
	 xmlns="http://www.w3.org/2000/svg" xmlns:xlink="http://www.w3.org/1999/xlink" x="0px" y="0px" viewBox="0 0 86 86"
	 style="enable-background:new 0 0 86 86;" xml:space="preserve">
<g transform="translate(0,-952.36218)">
	<path d="M43,952.4c-23.8,0-43,19.2-43,43s19.2,43,43,43s43-19.2,43-43S66.8,952.4,43,952.4z M26,988.4c-3.3,0-6-2.7-6-6s2.7-6,6-6
		s6,2.7,6,6S29.3,988.4,26,988.4z M43,1024c-6.8,0-12.3-6.6-12.3-14.8s5.5-14.8,12.3-14.8s12.3,6.6,12.3,14.8S49.8,1024,43,1024z
		 M60,988.4c-3.3,0-6-2.7-6-6s2.7-6,6-6s6,2.7,6,6S63.3,988.4,60,988.4z"/>
</g>
</svg>
