<?xml version="1.0" encoding="utf-8"?>
<!-- Generator: Adobe Illustrator 22.1.0, SVG Export Plug-In . SVG Version: 6.00 Build 0)  -->
<svg version="1.1" id="Layer_1" xmlns="http://www.w3.org/2000/svg" xmlns:xlink="http://www.w3.org/1999/xlink" x="0px" y="0px"
	 viewBox="0 0 852 852" style="enable-background:new 0 0 852 852;" xml:space="preserve">
<g>
	<path d="M426,0C190.7,0,0,190.7,0,426s190.7,426,426,426s426-190.7,426-426S661.3,0,426,0z M570.1,324.4l-0.4,0.4
		c-9.8,10.2-19.9,19.9-29.9,29.9L468.4,426l101.7,101.7c11.9,11.9,11,30.5,0,42.4c-11,12-31.3,11.1-42.4,0l-0.4-0.4
		c-10.2-9.8-19.9-19.9-29.9-29.9L426,468.5L324.3,570.1c-11.9,11.9-30.5,11-42.4,0c-12-11-11.1-31.3,0-42.4l0.4-0.4
		c9.8-10.2,19.9-19.9,29.9-29.9l71.4-71.4L282,324.3c-11.9-11.9-11-30.5,0-42.4c11-12,31.3-11.1,42.4,0l0.4,0.4
		c10.2,9.8,19.9,19.9,29.9,29.9l71.4,71.4l101.7-101.7c11.9-11.9,30.5-11,42.4,0C582.1,292.8,581.2,313.3,570.1,324.4z"/>
</g>
</svg>
