<?xml version="1.0" encoding="utf-8"?>
<!-- Generator: Adobe Illustrator 22.1.0, SVG Export Plug-In . SVG Version: 6.00 Build 0)  -->
<svg version="1.1" id="Layer_1" xmlns="http://www.w3.org/2000/svg" xmlns:xlink="http://www.w3.org/1999/xlink" x="0px" y="0px"
	 viewBox="0 0 10.9 10.9" style="enable-background:new 0 0 10.9 10.9;" xml:space="preserve">
<path d="M8,7.3c1.4-1.8,1.3-4.3-0.3-6c-1.8-1.8-4.6-1.8-6.4,0c-1.8,1.8-1.8,4.6,0,6.4C3,9.3,5.5,9.4,7.3,8l2.9,2.8l0.7-0.7L8,7.3z
	 M7,7L7,7C5.6,8.3,3.4,8.3,2,7C0.7,5.6,0.7,3.4,2,2c1.4-1.4,3.6-1.4,5,0C8.3,3.4,8.3,5.6,7,7z"/>
</svg>
