<?xml version="1.0" encoding="utf-8"?>
<!-- Generator: Adobe Illustrator 22.1.0, SVG Export Plug-In . SVG Version: 6.00 Build 0)  -->
<svg version="1.1" id="Layer_1" xmlns="http://www.w3.org/2000/svg" xmlns:xlink="http://www.w3.org/1999/xlink" x="0px" y="0px"
	 viewBox="0 0 20 17.9" style="enable-background:new 0 0 20 17.9;" xml:space="preserve">
<style type="text/css">
	.st0{fill:#F2668D;}
</style>
<g>
	<path class="st0" d="M19.2,5.7c0,1.3-0.5,2.6-1.4,3.5L10,16.9L2.2,9.2C1.3,8.2,0.8,7,0.8,5.7c0-1.3,0.5-2.5,1.4-3.5
		c0.9-0.9,2.2-1.4,3.5-1.4s2.5,0.5,3.5,1.4c0.1,0.1,0.2,0.1,0.2,0.2L10,3.2l0.6-0.7c0.1-0.1,0.2-0.2,0.2-0.2
		c0.9-0.9,2.2-1.4,3.5-1.4c1.3,0,2.5,0.5,3.5,1.4C18.7,3.2,19.2,4.4,19.2,5.7z"/>
	<path d="M18.3,1.7c-1.1-1.1-2.6-1.7-4-1.7c-1.5,0-2.9,0.6-4,1.7c-0.1,0.1-0.2,0.2-0.3,0.3C9.9,1.8,9.8,1.8,9.7,1.7
		C8.6,0.6,7.2,0,5.7,0c-1.5,0-2.9,0.6-4,1.7c-2.2,2.2-2.2,5.8,0,8.1l8,8c0.1,0.1,0.2,0.1,0.4,0.1c0.1,0,0.2,0,0.3-0.1l8-8
		C20.6,7.5,20.6,3.9,18.3,1.7z M5.7,0.8c1.3,0,2.5,0.5,3.5,1.4c0.1,0.1,0.2,0.1,0.2,0.2L10,3.2l0.6-0.7c0.1-0.1,0.2-0.2,0.2-0.2
		c0.9-0.9,2.2-1.4,3.5-1.4c1.3,0,2.5,0.5,3.5,1.4c0.9,0.9,1.4,2.1,1.4,3.5c0,1.3-0.5,2.6-1.4,3.5L10,16.9L2.2,9.2
		C1.3,8.2,0.8,7,0.8,5.7c0-1.3,0.5-2.5,1.4-3.5C3.2,1.3,4.4,0.8,5.7,0.8z"/>
</g>
</svg>
