<?xml version="1.0" encoding="utf-8"?>
<!-- Generator: Adobe Illustrator 25.3.1, SVG Export Plug-In . SVG Version: 6.00 Build 0)  -->
<svg version="1.1" id="Layer_1" xmlns="http://www.w3.org/2000/svg" xmlns:xlink="http://www.w3.org/1999/xlink" x="0px" y="0px"
	 viewBox="0 0 27.9 31.6" style="enable-background:new 0 0 27.9 31.6;" xml:space="preserve">
<path d="M27.7,8.2L14.2,0.1c-0.2-0.1-0.4-0.1-0.5,0l-13.5,8C0.1,8.1,0,8.3,0,8.5v14.8c0,0.2,0.1,0.3,0.2,0.4l13.5,7.8
	c0.1,0,0.2,0.1,0.3,0.1c0.1,0,0.2,0,0.3-0.1l13.5-8.1c0.1-0.1,0.2-0.3,0.2-0.4V8.6C27.9,8.5,27.8,8.3,27.7,8.2z M14,1.1l12.5,7.5
	l-5.7,3L8.6,4.2L14,1.1z M13.5,30.2L1,23V9.3l12.5,6.8V30.2z M14,15.2L1.5,8.5l6.1-3.6l12,7.4L14,15.2z M26.9,22.7l-12.5,7.5V16.1
	l12.5-6.6V22.7z"/>
</svg>
