<?xml version="1.0" encoding="utf-8"?>
<!-- Generator: Adobe Illustrator 22.1.0, SVG Export Plug-In . SVG Version: 6.00 Build 0)  -->
<svg version="1.1" id="Layer_1" xmlns="http://www.w3.org/2000/svg" xmlns:xlink="http://www.w3.org/1999/xlink" x="0px" y="0px"
	 viewBox="0 0 20.8 26.2" style="enable-background:new 0 0 20.8 26.2;" xml:space="preserve">
<style type="text/css">
	.st0{fill:#FFFFFF;}
</style>
<path class="st0" d="M14.6,26.1L14.6,26.1c-0.7-0.2-2.3-0.6-4.2-1.8c-2.3-1.5-4.5-3.8-6.4-6.7C0.3,11.8-0.7,7.9,0.5,4.1
	c0.6-1.9,1.7-2.7,3.1-3.7C4.2,0,4.8-0.1,5.5,0c0.6,0.1,1.1,0.5,1.5,1l2.7,4.1c0.7,1.1,0.4,2.6-0.7,3.3L7.8,9.2
	c-0.3,0.2-0.5,0.6-0.3,1c0.5,1.5,1,2.6,1.9,4c0.8,1.2,1.6,2.1,2.9,3.3c0.1,0.1,0.2,0.2,0.4,0.2c0.2,0,0.4,0,0.6-0.1l1.2-0.8
	c0.5-0.4,1.2-0.5,1.8-0.4c0.6,0.1,1.1,0.5,1.5,1l2.7,4.1c0.7,1.1,0.4,2.6-0.7,3.3c0,0,0,0,0,0c-1.5,0.9-2.6,1.6-4.6,1.4c0,0,0,0,0,0
	C15,26.1,14.9,26.1,14.6,26.1 M5.2,1.2c-0.3-0.1-0.7,0-1,0.2C2.8,2.3,2.1,3,1.6,4.4C0.5,7.9,1.4,11.5,5,17c4.3,6.4,8.6,7.8,9.8,8
	c0.2,0,0.3,0.1,0.4,0.1c1.6,0.1,2.4-0.3,3.9-1.2c0.6-0.4,0.8-1.2,0.4-1.7L16.8,18c-0.2-0.3-0.4-0.4-0.8-0.5c-0.3-0.1-0.7,0-1,0.2
	l-1.2,0.8c-0.4,0.3-1,0.4-1.5,0.3c-0.3-0.1-0.7-0.2-0.9-0.5c-1-0.9-2.1-1.9-3.1-3.5c-0.9-1.4-1.5-2.7-2-4.2c-0.3-0.8,0-1.8,0.8-2.3
	l1.2-0.8c0.6-0.4,0.8-1.2,0.4-1.7L6,1.7C5.8,1.4,5.6,1.2,5.2,1.2"/>
</svg>
