<?xml version="1.0" encoding="utf-8"?>
<!-- Generator: Adobe Illustrator 22.1.0, SVG Export Plug-In . SVG Version: 6.00 Build 0)  -->
<svg version="1.1" id="Layer_1" xmlns="http://www.w3.org/2000/svg" xmlns:xlink="http://www.w3.org/1999/xlink" x="0px" y="0px"
	 viewBox="0 0 22.4 19.9" style="enable-background:new 0 0 22.4 19.9;" xml:space="preserve">
<g>
	<path d="M16,0c-1.9,0-3.5,0.8-4.8,2.5C9.9,0.8,8.4,0,6.4,0C3.3,0,0,2.5,0,6.7c0,2.8,1.4,5.6,4.1,8.3c2.5,2.4,5.3,4.1,6.8,4.8
		c0.1,0,0.2,0.1,0.3,0.1c0.1,0,0.2,0,0.3-0.1c1.5-0.8,4.3-2.4,6.8-4.8c2.7-2.7,4.1-5.5,4.1-8.3C22.4,2.5,19.2,0,16,0z M17.4,14.1
		c-2.2,2.2-4.8,3.7-6.2,4.4c-1.4-0.7-4-2.2-6.2-4.4c-2.5-2.4-3.7-4.9-3.7-7.4c0-3.1,2.2-5.4,5.1-5.4c1.8,0,3.1,0.8,4.2,2.7
		c0.1,0.1,0.2,0.2,0.4,0.3c0.2,0,0.3,0,0.5-0.1c0.1-0.1,0.2-0.1,0.2-0.2c1.1-1.9,2.4-2.7,4.2-2.7c2.9,0,5.1,2.3,5.1,5.4
		c0,1.2-0.3,2.5-0.9,3.7S18.6,12.9,17.4,14.1z"/>
</g>
</svg>
