<?xml version="1.0" encoding="utf-8"?>
<!-- Generator: Adobe Illustrator 22.1.0, SVG Export Plug-In . SVG Version: 6.00 Build 0)  -->
<svg version="1.1" id="Layer_1" xmlns="http://www.w3.org/2000/svg" xmlns:xlink="http://www.w3.org/1999/xlink" x="0px" y="0px"
	 viewBox="0 0 35 40.2" style="enable-background:new 0 0 35 40.2;" xml:space="preserve">
<g>
	<path d="M35,34.5c0-0.1,0-0.1,0-0.2l-2.9-22.7c-0.1-1-1-1.7-2-1.7h-5.3V7.1c0,0,0-0.1,0-0.1c0-1.9-0.8-3.7-2.2-5
		c-1.4-1.3-3.2-2-5.1-2c-1.9,0-3.7,0.8-5,2.2c-1.3,1.3-2,3.1-2,4.9v2.8H4.9c-1,0-1.8,0.7-2,1.7L0.1,34.3c-0.3,2.2,0.2,5,4.2,5.9
		c0.1,0,0.3,0,0.4,0h25.7c0.1,0,0.3,0,0.4,0C33.7,39.6,35.1,37.5,35,34.5z M12.9,7.1c0-1.3,0.5-2.4,1.3-3.3c0.9-0.9,2.1-1.4,3.4-1.5
		c0,0,0.1,0,0.1,0c1.3,0,2.4,0.5,3.3,1.3c0.9,0.9,1.4,2.1,1.5,3.4c0,0,0,0.1,0,0.1v2.8h-9.6V7.1z M30.4,37.7H4.8
		c-1.8-0.4-2.4-1.2-2.2-3c0,0,0,0,0,0l2.8-22.2h24.2l2.8,22.1C32.5,36.4,31.9,37.3,30.4,37.7z"/>
</g>
</svg>
