<?xml version="1.0" encoding="utf-8"?>
<!-- Generator: Adobe Illustrator 22.1.0, SVG Export Plug-In . SVG Version: 6.00 Build 0)  -->
<svg version="1.1" id="Layer_1" xmlns="http://www.w3.org/2000/svg" xmlns:xlink="http://www.w3.org/1999/xlink" x="0px" y="0px"
	 viewBox="0 0 16.7 19.8" style="enable-background:new 0 0 16.7 19.8;" xml:space="preserve">
<path d="M8.6,10.5c2.8-0.1,5-2.5,5-5.3c0-2.9-2.4-5.3-5.3-5.3C5.5,0,3.1,2.4,3.1,5.3c0,2.8,2.2,5.1,5,5.3C3.5,10.7,0,14.4,0,19.2
	c0,0.3,0.3,0.6,0.6,0.6c0.3,0,0.6-0.3,0.6-0.6c0,0,0,0,0,0c0-4.3,3.1-7.4,7.1-7.4c4.1,0,7.1,3.1,7.1,7.4c0,0,0,0,0,0
	c0,0.3,0.3,0.6,0.6,0.6c0.3,0,0.6-0.3,0.6-0.6C16.7,14.4,13.2,10.7,8.6,10.5 M4.3,5.3c0-2.2,1.8-4,4-4c2.2,0,4,1.8,4,4
	c0,2.2-1.8,4-4,4C6.1,9.3,4.3,7.5,4.3,5.3"/>
</svg>
