<?xml version="1.0" encoding="utf-8"?>
<!-- Generator: Adobe Illustrator 22.1.0, SVG Export Plug-In . SVG Version: 6.00 Build 0)  -->
<svg version="1.1" id="Layer_1" xmlns="http://www.w3.org/2000/svg" xmlns:xlink="http://www.w3.org/1999/xlink" x="0px" y="0px"
	 viewBox="0 0 69 21.2" style="enable-background:new 0 0 69 21.2;" xml:space="preserve">
<style type="text/css">
	.st0{fill:#0058A0;}
	.st1{fill:#FAA61A;}
</style>
<g>
	<polygon class="st0" points="24.3,20.9 27.8,0.4 33.4,0.4 29.9,20.9 24.3,20.9 	"/>
	<path class="st0" d="M50.2,0.9C49,0.4,47.3,0,45.1,0c-5.5,0-9.4,2.8-9.4,6.8c0,2.9,2.8,4.6,4.9,5.6c2.2,1,2.9,1.6,2.9,2.5
		c0,1.4-1.7,2-3.3,2c-2.2,0-3.4-0.3-5.3-1.1l-0.7-0.3l-0.8,4.6c1.3,0.6,3.7,1.1,6.2,1.1c5.9,0,9.7-2.7,9.7-7c0-2.3-1.5-4.1-4.7-5.6
		c-2-0.9-3.2-1.6-3.1-2.5c0-0.9,1-1.8,3.2-1.8c1.8,0,3.2,0.4,4.2,0.8l0.5,0.2L50.2,0.9L50.2,0.9z"/>
	<path class="st0" d="M64.5,0.4h-4.3c-1.3,0-2.3,0.4-2.9,1.7l-8.3,18.8h5.9c0,0,1-2.5,1.2-3.1c0.6,0,6.3,0,7.2,0
		c0.2,0.7,0.7,3.1,0.7,3.1H69L64.5,0.4L64.5,0.4z M57.6,13.6c0.5-1.2,2.2-5.7,2.2-5.7c0,0.1,0.5-1.2,0.7-2l0.4,1.8
		c0,0,1.1,4.9,1.3,5.9H57.6L57.6,13.6z"/>
	<path class="st0" d="M19.6,0.4l-5.5,14l-0.6-2.8c-1-3.3-4.2-6.8-7.7-8.6l5,17.9l5.9,0l8.8-20.5H19.6L19.6,0.4z"/>
	<path class="st1" d="M9.1,0.4h-9L0,0.8c7,1.7,11.6,5.8,13.6,10.7l-2-9.4C11.3,0.8,10.3,0.4,9.1,0.4L9.1,0.4z"/>
</g>
</svg>
