<?xml version="1.0" encoding="utf-8"?>
<!-- Generator: Adobe Illustrator 22.1.0, SVG Export Plug-In . SVG Version: 6.00 Build 0)  -->
<svg version="1.1" id="Layer_1" xmlns="http://www.w3.org/2000/svg" xmlns:xlink="http://www.w3.org/1999/xlink" x="0px" y="0px"
	 viewBox="0 0 22.7 20.1" style="enable-background:new 0 0 22.7 20.1;" xml:space="preserve">
<style type="text/css">
	.st0{fill:#FFFFFF;}
</style>
<path class="st0" d="M16.2,0c-2.3,0-3.8,1.2-4.9,2.7C10.2,1.2,8.7,0,6.4,0C2.6,0,0,3.2,0,6.7c0,3.3,1.9,6.2,4.2,8.4
	c2.3,2.3,5,3.9,6.9,4.9c0.1,0.1,0.3,0.1,0.5,0c1.9-1,4.6-2.6,6.9-4.9c2.3-2.3,4.2-5.1,4.2-8.4C22.7,3.2,20.1,0,16.2,0z M17.8,14.4
	c-2.1,2.1-4.6,3.6-6.4,4.6c-1.8-1-4.3-2.5-6.4-4.6C2.7,12.2,1,9.6,1,6.7C1,3.7,3.1,1,6.4,1c2.2,0,3.4,1.1,4.5,2.8
	C11,4.1,11.4,4.2,11.6,4c0.1,0,0.1-0.1,0.2-0.2C12.8,2.1,14,1,16.2,1c3.3,0,5.4,2.6,5.4,5.7C21.6,9.6,20,12.2,17.8,14.4z"/>
<path class="st0" d="M21.6,6.7c0,2.9-1.7,5.5-3.9,7.7c-2.1,2.1-4.6,3.6-6.4,4.6c-1.8-1-4.3-2.5-6.4-4.6C2.7,12.2,1,9.6,1,6.7
	C1,3.7,3.1,1,6.4,1c2.2,0,3.4,1.1,4.5,2.8C11,4.1,11.4,4.2,11.6,4c0.1,0,0.1-0.1,0.2-0.2C12.8,2.1,14,1,16.2,1
	C19.5,1,21.6,3.7,21.6,6.7z"/>
</svg>
