<?xml version="1.0" encoding="utf-8"?>
<!-- Generator: Adobe Illustrator 25.3.1, SVG Export Plug-In . SVG Version: 6.00 Build 0)  -->
<svg version="1.1" id="Layer_1" xmlns="http://www.w3.org/2000/svg" xmlns:xlink="http://www.w3.org/1999/xlink" x="0px" y="0px"
	 viewBox="0 0 23.8 31.6" style="enable-background:new 0 0 23.8 31.6;" xml:space="preserve">
<path d="M20.4,6.9H18v-1C18,2.6,15.3,0,12.1,0h-0.2C8.6,0,6,2.6,6,5.9v1H3.4C1.5,6.9,0,8.5,0,10.3v17.9c0,1.9,1.5,3.4,3.4,3.4h17.1
	c1.9,0,3.4-1.5,3.4-3.4V10.3C23.8,8.5,22.3,6.9,20.4,6.9z M7,5.9C7,3.2,9.2,1,11.9,1h0.2C14.8,1,17,3.2,17,5.9v1H7V5.9z M22.8,28.2
	c0,1.3-1.1,2.4-2.4,2.4H3.4c-1.3,0-2.4-1.1-2.4-2.4V10.3C1,9,2.1,7.9,3.4,7.9H6v5.7c0,0.3,0.2,0.5,0.5,0.5S7,14,7,13.7V7.9h10v5.7
	c0,0.3,0.2,0.5,0.5,0.5S18,14,18,13.7V7.9h2.5c1.3,0,2.4,1.1,2.4,2.4V28.2z"/>
</svg>
