<?xml version="1.0" encoding="utf-8"?>
<!-- Generator: Adobe Illustrator 22.1.0, SVG Export Plug-In . SVG Version: 6.00 Build 0)  -->
<svg version="1.1" id="Layer_1" xmlns="http://www.w3.org/2000/svg" xmlns:xlink="http://www.w3.org/1999/xlink" x="0px" y="0px"
	 viewBox="0 0 40 23.9" style="enable-background:new 0 0 40 23.9;" xml:space="preserve">
<style type="text/css">
	.st0{fill:#F8981D;}
	.st1{fill:#CB2026;}
	.st2{fill:#FFFFFF;}
	.st3{fill:#22205F;}
	.st4{fill-rule:evenodd;clip-rule:evenodd;fill:#22205F;}
</style>
<g>
	<path class="st0" d="M20,20.8c2.1,1.9,4.9,3.1,8,3.1c6.6,0,12-5.4,12-12c0-6.6-5.4-12-12-12c-3.1,0-5.9,1.2-8,3.1
		c-2.4,2.2-3.9,5.4-3.9,8.9C16.1,15.5,17.6,18.6,20,20.8"/>
	<path class="st0" d="M38.4,18.6c0-0.2,0.2-0.4,0.4-0.4c0.2,0,0.4,0.2,0.4,0.4S39,19,38.8,19C38.6,19,38.4,18.9,38.4,18.6
		 M38.8,18.9c0.2,0,0.3-0.1,0.3-0.3c0-0.2-0.1-0.3-0.3-0.3c-0.2,0-0.3,0.1-0.3,0.3C38.5,18.8,38.6,18.9,38.8,18.9 M38.7,18.8
		L38.7,18.8l-0.1-0.3h0.1c0,0,0.1,0,0.1,0c0,0,0,0.1,0,0.1c0,0,0,0.1-0.1,0.1l0.1,0.1h-0.1l-0.1-0.1h-0.1V18.8z M38.7,18.6
		L38.7,18.6C38.8,18.6,38.8,18.6,38.7,18.6c0.1,0,0.1,0,0.1,0C38.9,18.6,38.8,18.5,38.7,18.6C38.8,18.5,38.8,18.5,38.7,18.6
		L38.7,18.6L38.7,18.6z"/>
	<path class="st1" d="M23.9,10.7c0-0.4-0.1-0.9-0.2-1.3h-7.3c0.1-0.4,0.2-0.9,0.3-1.3h6.6c-0.1-0.4-0.3-0.9-0.5-1.3h-5.6
		c0.2-0.4,0.4-0.9,0.7-1.3h4.2c-0.3-0.4-0.6-0.9-0.9-1.3h-2.4c0.4-0.5,0.8-0.9,1.2-1.3C17.9,1.2,15.1,0,12,0C5.4,0,0,5.4,0,12
		c0,6.6,5.4,12,12,12c3.1,0,5.9-1.2,8-3.1c0.4-0.4,0.8-0.8,1.2-1.3h-2.4c-0.3-0.4-0.6-0.8-0.9-1.3h4.2c0.3-0.4,0.5-0.8,0.7-1.3h-5.6
		c-0.2-0.4-0.4-0.8-0.5-1.3h6.6c0.1-0.4,0.3-0.8,0.3-1.3c0.1-0.4,0.2-0.8,0.2-1.3c0-0.4,0.1-0.8,0.1-1.3
		C23.9,11.5,23.9,11.1,23.9,10.7"/>
	<path class="st2" d="M38.4,14.7c0-0.2,0.2-0.4,0.4-0.4c0.2,0,0.4,0.2,0.4,0.4c0,0.2-0.2,0.4-0.4,0.4C38.6,15.1,38.4,15,38.4,14.7
		 M38.8,15c0.2,0,0.3-0.1,0.3-0.3c0-0.2-0.1-0.3-0.3-0.3c-0.2,0-0.3,0.1-0.3,0.3C38.5,14.9,38.6,15,38.8,15 M38.7,14.9L38.7,14.9
		l-0.1-0.3h0.1c0,0,0.1,0,0.1,0c0,0,0,0.1,0,0.1c0,0,0,0.1-0.1,0.1l0.1,0.1h-0.1l-0.1-0.1h-0.1V14.9z M38.7,14.7L38.7,14.7
		C38.8,14.7,38.8,14.7,38.7,14.7c0.1,0,0.1,0,0.1,0C38.9,14.7,38.8,14.6,38.7,14.7C38.8,14.6,38.8,14.6,38.7,14.7L38.7,14.7
		L38.7,14.7z"/>
	<path class="st3" d="M15.9,15.4c-0.4,0.1-0.7,0.2-1,0.2c-0.6,0-1-0.4-1-1.1c0-0.1,0-0.3,0-0.4l0.1-0.5l0.1-0.4l0.6-3.4H16l-0.1,0.7
		h0.8l-0.2,1.2h-0.8l-0.3,2c0,0.1,0,0.2,0,0.2c0,0.3,0.1,0.4,0.4,0.4c0.1,0,0.3,0,0.4,0L15.9,15.4"/>
	<path class="st3" d="M19.9,15.4c-0.4,0.1-0.9,0.2-1.3,0.2c-1.4,0-2.2-0.8-2.2-2.2c0-1.7,1-2.9,2.3-2.9c1.1,0,1.8,0.7,1.8,1.8
		c0,0.4,0,0.7-0.2,1.2h-2.6c0,0.1,0,0.1,0,0.2c0,0.6,0.4,0.9,1.1,0.9c0.5,0,0.9-0.1,1.3-0.3L19.9,15.4 M19.2,12.4c0-0.1,0-0.2,0-0.3
		c0-0.4-0.2-0.6-0.6-0.6c-0.4,0-0.7,0.3-0.8,0.9L19.2,12.4z"/>
	<polygon class="st3" points="6,15.5 4.7,15.5 5.5,10.8 3.8,15.5 2.9,15.5 2.8,10.8 2,15.5 0.8,15.5 1.8,9.4 3.6,9.4 3.7,13.2 
		5,9.4 7,9.4 	"/>
	<path class="st3" d="M9.1,13.3c-0.1,0-0.2,0-0.3,0c-0.7,0-1.1,0.3-1.1,0.8c0,0.3,0.2,0.5,0.5,0.5C8.9,14.5,9.1,14,9.1,13.3
		 M10.2,15.5H9l0-0.5c-0.3,0.4-0.7,0.6-1.4,0.6c-0.6,0-1.2-0.5-1.2-1.3c0-0.2,0-0.4,0.1-0.6c0.2-0.8,1-1.2,2.2-1.3
		c0.1,0,0.4,0,0.6,0c0-0.2,0.1-0.2,0.1-0.3c0-0.3-0.3-0.4-0.9-0.4c-0.4,0-0.8,0.1-1.1,0.1l-0.2,0.1l-0.1,0l0.2-1.1
		c0.6-0.2,1-0.3,1.5-0.3c1.1,0,1.7,0.5,1.7,1.4c0,0.2,0,0.4-0.1,1l-0.3,1.8l0,0.3l0,0.3l0,0.2L10.2,15.5z"/>
	<path class="st3" d="M26.2,10.6c0.4,0,0.7,0.1,1.2,0.3l0.2-1.3c-0.1,0-0.1-0.1-0.3-0.1l-0.5-0.1c-0.2,0-0.4-0.1-0.6-0.1
		c-0.6,0-1,0-1.4,0.2c-0.2,0.1-0.5,0.3-0.8,0.6l-0.2,0l-1.3,0.9l0.1-0.5h-1.4l-0.8,4.9h1.3l0.5-2.7c0,0,0.2-0.4,0.3-0.5
		c0.2-0.3,0.5-0.3,0.7-0.3c0,0,0.1,0,0.1,0c0,0.3-0.1,0.6-0.1,0.9c0,1.6,0.9,2.6,2.3,2.6c0.4,0,0.7,0,1.1-0.2l0.2-1.4
		c-0.4,0.2-0.8,0.3-1.1,0.3c-0.8,0-1.2-0.6-1.2-1.5C24.5,11.5,25.2,10.6,26.2,10.6"/>
	<path class="st3" d="M37.2,9.4l-0.3,1.7c-0.3-0.5-0.7-0.7-1.2-0.7c-0.7,0-1.3,0.4-1.7,1.1l0,0l-0.8-0.5l0.1-0.5h-1.4l-0.8,4.9h1.3
		l0.4-2.7c0,0,0.3-0.4,0.4-0.5c0.2-0.3,0.4-0.3,0.6-0.3c-0.1,0.4-0.2,0.9-0.2,1.5c0,1.2,0.6,2,1.6,2c0.5,0,0.8-0.2,1.2-0.5l-0.1,0.5
		h1.2l1-6.1H37.2 M35.6,14.3c-0.4,0-0.7-0.3-0.7-1c0-1,0.4-1.7,1-1.7c0.4,0,0.7,0.3,0.7,1C36.6,13.6,36.2,14.3,35.6,14.3"/>
	<path class="st3" d="M29.6,13.3c-0.1,0-0.2,0-0.3,0c-0.7,0-1.1,0.3-1.1,0.8c0,0.3,0.2,0.5,0.5,0.5C29.3,14.5,29.6,14,29.6,13.3
		 M30.6,15.5h-1.1l0-0.5c-0.3,0.4-0.7,0.6-1.4,0.6c-0.6,0-1.2-0.5-1.2-1.4c0-1.2,0.9-1.9,2.3-1.9c0.1,0,0.4,0,0.6,0
		c0-0.2,0.1-0.2,0.1-0.3c0-0.3-0.3-0.4-0.9-0.4c-0.4,0-0.8,0.1-1.1,0.1l-0.2,0.1l-0.1,0l0.2-1.1c0.6-0.2,1-0.3,1.5-0.3
		c1.1,0,1.7,0.5,1.7,1.4c0,0.2,0,0.4-0.1,1l-0.3,1.8l0,0.3l0,0.3l0,0.2L30.6,15.5z"/>
	<path class="st4" d="M12.9,11.6c0.3,0,0.6,0,1,0.1l0.2-1.1c-0.4-0.1-0.9-0.1-1.2-0.1c-1.5,0-1.9,0.8-1.9,1.7c0,0.6,0.3,1,1,1.4
		c0.5,0.2,0.6,0.3,0.6,0.5c0,0.3-0.3,0.5-0.8,0.5c-0.4,0-0.7-0.1-1.2-0.2l-0.2,1.1l0,0l0.2,0c0.1,0,0.2,0,0.3,0c0.3,0,0.6,0,0.7,0
		c1.4,0,2-0.6,2-1.6c0-0.7-0.3-1.1-1-1.4c-0.5-0.3-0.6-0.3-0.6-0.5C12.2,11.8,12.5,11.6,12.9,11.6"/>
	<g>
		<path class="st2" d="M27.9,9.2l-0.2,1.3c-0.5-0.2-0.8-0.3-1.2-0.3c-1,0-1.7,0.9-1.7,2.3c0,0.9,0.5,1.5,1.2,1.5
			c0.3,0,0.7-0.1,1.1-0.3L27,15c-0.5,0.1-0.8,0.2-1.1,0.2c-1.4,0-2.3-1-2.3-2.6c0-2.2,1.2-3.7,2.9-3.7c0.2,0,0.4,0,0.6,0.1l0.5,0.1
			C27.8,9.2,27.8,9.2,27.9,9.2"/>
		<path class="st2" d="M23.7,10.1c0,0-0.1,0-0.1,0c-0.4,0-0.7,0.2-1.1,0.8l0.1-0.7h-1.2l-0.8,4.9H22c0.5-3,0.6-3.5,1.2-3.5
			c0,0,0,0,0.1,0C23.4,11,23.6,10.5,23.7,10.1L23.7,10.1"/>
		<path class="st2" d="M16.3,15c-0.4,0.1-0.6,0.2-0.9,0.2c-0.7,0-1-0.4-1-1.1c0-0.1,0-0.3,0-0.4l0.1-0.5l0.1-0.4L15,9.4h1.3
			l-0.1,0.7h0.7l-0.2,1.2H16l-0.3,2.1c0,0.1,0,0.2,0,0.2c0,0.3,0.1,0.4,0.4,0.4c0.1,0,0.3,0,0.4,0L16.3,15"/>
		<path class="st2" d="M11.3,11.7c0,0.6,0.3,1.1,1,1.4c0.5,0.2,0.6,0.3,0.6,0.5c0,0.3-0.2,0.4-0.7,0.4c-0.4,0-0.7-0.1-1.2-0.2
			L10.8,15l0.1,0l0.2,0c0.1,0,0.2,0,0.3,0c0.3,0,0.5,0,0.7,0c1.4,0,2-0.5,2-1.6c0-0.7-0.3-1.1-0.9-1.4c-0.5-0.2-0.6-0.3-0.6-0.5
			c0-0.3,0.2-0.4,0.6-0.4c0.3,0,0.6,0,0.9,0.1l0.2-1.1c-0.3-0.1-0.8-0.1-1.1-0.1C11.8,10.1,11.3,10.8,11.3,11.7"/>
		<path class="st2" d="M37.8,15.1h-1.2l0.1-0.5c-0.4,0.4-0.7,0.5-1.2,0.5c-0.9,0-1.6-0.8-1.6-2c0-1.6,1-3,2.1-3
			c0.5,0,0.9,0.2,1.2,0.7L37.5,9h1.3L37.8,15.1 M35.9,13.9c0.6,0,1-0.7,1-1.7c0-0.6-0.2-1-0.7-1c-0.6,0-1,0.7-1,1.7
			C35.3,13.6,35.5,13.9,35.9,13.9"/>
		<path class="st2" d="M20.2,15c-0.4,0.1-0.9,0.2-1.3,0.2c-1.5,0-2.2-0.8-2.2-2.2c0-1.7,1-2.9,2.3-2.9c1.1,0,1.8,0.7,1.8,1.8
			c0,0.4,0,0.7-0.2,1.2H18c0,0.1,0,0.1,0,0.2c0,0.6,0.4,0.9,1.1,0.9c0.5,0,0.9-0.1,1.3-0.3L20.2,15 M19.5,12.1c0-0.1,0-0.2,0-0.3
			c0-0.4-0.2-0.6-0.6-0.6c-0.4,0-0.7,0.3-0.8,0.9L19.5,12.1z"/>
		<polygon class="st2" points="6.3,15.1 5,15.1 5.8,10.4 4.1,15.1 3.2,15.1 3.1,10.5 2.4,15.1 1.1,15.1 2.2,9 4,9 4.1,12.8 5.3,9 
			7.4,9 		"/>
		<path class="st2" d="M9.5,12.9c-0.1,0-0.2,0-0.3,0c-0.7,0-1.1,0.3-1.1,0.8c0,0.3,0.2,0.5,0.5,0.5C9.1,14.1,9.5,13.6,9.5,12.9
			 M10.5,15.1H9.4l0-0.5c-0.3,0.4-0.8,0.6-1.4,0.6c-0.7,0-1.2-0.5-1.2-1.3c0-1.2,0.8-1.9,2.3-1.9c0.1,0,0.3,0,0.5,0
			c0-0.2,0.1-0.2,0.1-0.3c0-0.3-0.2-0.4-0.8-0.4c-0.4,0-0.8,0.1-1.1,0.1l-0.2,0.1l-0.1,0l0.2-1.1c0.6-0.2,1.1-0.3,1.6-0.3
			c1.1,0,1.7,0.5,1.7,1.4c0,0.2,0,0.4-0.1,1l-0.3,1.7l0,0.3l0,0.3l0,0.2L10.5,15.1z"/>
		<path class="st2" d="M30,12.9c-0.1,0-0.2,0-0.3,0c-0.7,0-1.1,0.3-1.1,0.8c0,0.3,0.2,0.5,0.5,0.5C29.6,14.1,30,13.6,30,12.9
			 M31,15.1h-1.1l0-0.5c-0.3,0.4-0.8,0.6-1.4,0.6c-0.7,0-1.2-0.5-1.2-1.3c0-1.2,0.8-1.9,2.3-1.9c0.1,0,0.3,0,0.5,0
			c0-0.2,0.1-0.2,0.1-0.3c0-0.3-0.2-0.4-0.8-0.4c-0.4,0-0.8,0.1-1.1,0.1l-0.2,0.1l-0.1,0l0.2-1.1c0.6-0.2,1.1-0.3,1.6-0.3
			c1.1,0,1.7,0.5,1.7,1.4c0,0.2,0,0.4-0.1,1l-0.3,1.7l0,0.3l0,0.3l0,0.2L31,15.1z"/>
		<path class="st2" d="M34.4,10.1c0,0-0.1,0-0.1,0c-0.4,0-0.7,0.2-1.1,0.8l0.1-0.7h-1.2l-0.8,4.9h1.3c0.5-3,0.6-3.5,1.2-3.5
			c0,0,0,0,0.1,0C34.1,11,34.3,10.5,34.4,10.1L34.4,10.1"/>
	</g>
</g>
</svg>
