<?xml version="1.0" encoding="utf-8"?>
<!-- Generator: Adobe Illustrator 22.1.0, SVG Export Plug-In . SVG Version: 6.00 Build 0)  -->
<svg version="1.1" id="Layer_1" xmlns="http://www.w3.org/2000/svg" xmlns:xlink="http://www.w3.org/1999/xlink" x="0px" y="0px"
	 viewBox="0 0 24.7 8.4" style="enable-background:new 0 0 24.7 8.4;" xml:space="preserve">
<path d="M23.2,0H1.5C0.7,0,0,0.7,0,1.5v5.3c0,0.8,0.7,1.5,1.5,1.5h21.6c0.8,0,1.5-0.7,1.5-1.5V1.5C24.7,0.7,24,0,23.2,0 M23.5,6.9
	c0,0.2-0.1,0.3-0.3,0.3H1.5C1.4,7.2,1.2,7,1.2,6.9V1.5c0-0.2,0.1-0.3,0.3-0.3h1.8v1.9h1.2V1.2h2.1v1.9H8V1.2h2.1v1.9h1.2V1.2h2.1
	v1.9h1.2V1.2h2.1v1.9h1.2V1.2h2.1v1.9h1.2V1.2h1.8c0.2,0,0.3,0.1,0.3,0.3L23.5,6.9L23.5,6.9z"/>
</svg>
