<?xml version="1.0" encoding="utf-8"?>
<!-- Generator: Adobe Illustrator 22.1.0, SVG Export Plug-In . SVG Version: 6.00 Build 0)  -->
<svg version="1.1"
	 id="Layer_1" xmlns:cc="http://creativecommons.org/ns#" xmlns:dc="http://purl.org/dc/elements/1.1/" xmlns:inkscape="http://www.inkscape.org/namespaces/inkscape" xmlns:rdf="http://www.w3.org/1999/02/22-rdf-syntax-ns#" xmlns:sodipodi="http://sodipodi.sourceforge.net/DTD/sodipodi-0.dtd" xmlns:svg="http://www.w3.org/2000/svg"
	 xmlns="http://www.w3.org/2000/svg" xmlns:xlink="http://www.w3.org/1999/xlink" x="0px" y="0px" viewBox="0 0 86 86"
	 style="enable-background:new 0 0 86 86;" xml:space="preserve">
<g transform="translate(0,-952.36218)">
	<path d="M43,952.4c-23.7,0-43,19.3-43,43c0,23.7,19.3,43,43,43s43-19.3,43-43C86,971.6,66.7,952.4,43,952.4z M26,976.4
		c3.3,0,6,2.7,6,6c0,3.3-2.7,6-6,6c-3.3,0-6-2.7-6-6C20,979,22.7,976.4,26,976.4z M60,976.4c3.3,0,6,2.7,6,6c0,3.3-2.7,6-6,6
		c-3.3,0-6-2.7-6-6C54,979,56.7,976.4,60,976.4z M65,1005.2c2,0.3,2.5,1.8,1.7,3.2c-5.2,7.8-13.9,12.9-23.7,12.9
		s-18.5-5.1-23.7-12.9c-0.8-1.1,0.1-3,1.4-3.1c0.7-0.1,1.5,0.3,1.9,0.9c4.5,6.7,11.9,11.1,20.3,11.1s15.8-4.4,20.3-11.1
		C63.7,1005.7,64.3,1005.2,65,1005.2z"/>
</g>
</svg>
