<?xml version="1.0" encoding="utf-8"?>
<!-- Generator: Adobe Illustrator 22.1.0, SVG Export Plug-In . SVG Version: 6.00 Build 0)  -->
<svg version="1.1" id="Layer_1" xmlns="http://www.w3.org/2000/svg" xmlns:xlink="http://www.w3.org/1999/xlink" x="0px" y="0px"
	 viewBox="0 0 89 89" style="enable-background:new 0 0 89 89;" xml:space="preserve">
<style type="text/css">
	.st0{fill:#F2668D;}
</style>
<path class="st0" d="M44.5,0C19.9,0,0,19.9,0,44.5S19.9,89,44.5,89S89,69.1,89,44.5S69.1,0,44.5,0z M66,35.3L39.7,61.5
	c-0.8,0.8-1.8,1.2-2.9,1.2c-1,0-2.2-0.4-2.9-1.2l-13-12.9c-1.6-1.6-1.6-4.2,0-5.8c1.6-1.6,4.2-1.6,5.8,0l10,10l23.4-23.4
	c1.6-1.6,4.2-1.6,5.8,0C67.6,31.1,67.6,33.7,66,35.3z"/>
</svg>
