<?xml version="1.0" encoding="utf-8"?>
<!-- Generator: Adobe Illustrator 25.3.1, SVG Export Plug-In . SVG Version: 6.00 Build 0)  -->
<svg version="1.1" id="Layer_1" xmlns="http://www.w3.org/2000/svg" xmlns:xlink="http://www.w3.org/1999/xlink" x="0px" y="0px"
	 viewBox="0 0 36.1 26.4" style="enable-background:new 0 0 36.1 26.4;" xml:space="preserve">
<path d="M22.9,24.4c-1.6,0.7-3.2,1-4.9,1c-6.8,0-12.4-5.6-12.4-12.4v-3l4.6,3.9c0.2,0.2,0.5,0.2,0.7-0.1c0.2-0.2,0.2-0.5-0.1-0.7
	L5.4,8.5c0,0-0.1,0-0.1,0c0,0,0,0-0.1,0c-0.1,0-0.1,0-0.2,0c-0.1,0-0.1,0-0.2,0c-0.1,0-0.1,0.1-0.2,0.1c0,0,0,0,0,0l-4.5,4.7
	c-0.2,0.2-0.2,0.5,0,0.7c0.2,0.2,0.5,0.2,0.7,0l3.7-3.8V13c0,7.4,6,13.4,13.4,13.4c1.9,0,3.6-0.4,5.3-1.1c0.3-0.1,0.4-0.4,0.3-0.7
	C23.4,24.4,23.1,24.3,22.9,24.4z M35.9,12.4c-0.2-0.2-0.5-0.2-0.7,0l-3.7,3.8v-2.8C31.5,6,25.5,0,18.2,0c-1.9,0-3.6,0.4-5.3,1.1
	c-0.3,0.1-0.4,0.4-0.3,0.7C12.7,2,13,2.1,13.2,2c1.6-0.7,3.2-1,4.9-1C25,1,30.5,6.6,30.5,13.4v3l-4.6-3.9c-0.2-0.2-0.5-0.2-0.7,0.1
	c-0.2,0.2-0.2,0.5,0.1,0.7l5.4,4.7c0,0,0.1,0,0.1,0c0,0,0,0,0.1,0c0.1,0,0.1,0,0.2,0c0.1,0,0.1,0,0.2,0c0.1,0,0.1-0.1,0.2-0.1
	c0,0,0,0,0,0l4.5-4.7C36.1,13,36.1,12.6,35.9,12.4z"/>
</svg>
