<?xml version="1.0" encoding="utf-8"?>
<!-- Generator: Adobe Illustrator 24.3.0, SVG Export Plug-In . SVG Version: 6.00 Build 0)  -->
<svg version="1.1" id="Layer_1" xmlns="http://www.w3.org/2000/svg" xmlns:xlink="http://www.w3.org/1999/xlink" x="0px" y="0px"
	 viewBox="0 0 20.96 19.78" style="enable-background:new 0 0 20.96 19.78;" xml:space="preserve">
<path d="M20.74,18.61l-7.36-6.66c1.15-1.54,1.73-3.51,1.43-5.56c-0.59-4.07-4.36-6.9-8.43-6.31c-4.06,0.58-6.9,4.36-6.31,8.43
	s4.37,6.89,8.43,6.31c1.54-0.22,2.9-0.89,3.96-1.86l7.37,6.66c0.28,0.25,0.71,0.23,0.96-0.05C21.04,19.29,21.02,18.86,20.74,18.61z
	 M11.42,12c-0.84,0.76-1.91,1.27-3.11,1.44C5,13.93,1.92,11.62,1.45,8.31C0.97,5,3.27,1.92,6.58,1.45c3.32-0.48,6.39,1.83,6.87,5.14
	c0.24,1.64-0.2,3.2-1.1,4.43C12.08,11.38,11.77,11.71,11.42,12z"/>
</svg>
