<?xml version="1.0" encoding="utf-8"?>
<!-- Generator: Adobe Illustrator 22.1.0, SVG Export Plug-In . SVG Version: 6.00 Build 0)  -->
<svg version="1.1"
	 id="Layer_1" xmlns:cc="http://creativecommons.org/ns#" xmlns:dc="http://purl.org/dc/elements/1.1/" xmlns:inkscape="http://www.inkscape.org/namespaces/inkscape" xmlns:rdf="http://www.w3.org/1999/02/22-rdf-syntax-ns#" xmlns:sodipodi="http://sodipodi.sourceforge.net/DTD/sodipodi-0.dtd" xmlns:svg="http://www.w3.org/2000/svg"
	 xmlns="http://www.w3.org/2000/svg" xmlns:xlink="http://www.w3.org/1999/xlink" x="0px" y="0px" viewBox="0 0 86 86"
	 style="enable-background:new 0 0 86 86;" xml:space="preserve">
<g transform="translate(0,-952.36218)">
	<path d="M43,952.4c-23.7,0-43,19.3-43,43c0,23.7,19.3,43,43,43s43-19.3,43-43C86,971.6,66.7,952.4,43,952.4z M26,976.4
		c3.3,0,6,2.7,6,6s-2.7,6-6,6c-3.3,0-6-2.7-6-6S22.7,976.4,26,976.4z M60,976.4c3.3,0,6,2.7,6,6s-2.7,6-6,6c-3.3,0-6-2.7-6-6
		S56.7,976.4,60,976.4z M43,1001.4c9.8,0,18.5,5.1,23.7,12.9c0.7,0.9,0.5,2.1-0.3,2.8c-0.9,0.7-2.1,0.5-2.8-0.3
		c-0.1-0.1-0.1-0.2-0.2-0.3c-4.5-6.7-11.9-11.1-20.3-11.1s-15.8,4.4-20.3,11.1c-0.5,1-1.8,1.3-2.7,0.8c-1-0.5-1.3-1.8-0.8-2.7
		c0.1-0.1,0.1-0.2,0.2-0.3C24.5,1006.5,33.2,1001.4,43,1001.4z"/>
</g>
</svg>
