<?xml version="1.0" encoding="utf-8"?>
<!-- Generator: Adobe Illustrator 22.1.0, SVG Export Plug-In . SVG Version: 6.00 Build 0)  -->
<svg version="1.1" id="Layer_1" xmlns="http://www.w3.org/2000/svg" xmlns:xlink="http://www.w3.org/1999/xlink" x="0px" y="0px"
	 viewBox="0 0 141.5 12.4" style="enable-background:new 0 0 141.5 12.4;" xml:space="preserve">
<style type="text/css">
	.st0{fill:#010101;}
</style>
<g>
	<path class="st0" d="M4,12.2H0v-12h4c3.8,0,6.4,2.6,6.4,6v0C10.4,9.6,7.8,12.2,4,12.2z M9.4,6.2C9.4,3.4,7.3,1,4,1H0.9v10.4H4
		C7.3,11.4,9.4,9.1,9.4,6.2L9.4,6.2z"/>
	<path class="st0" d="M13.2,12.2v-12h0.9v12H13.2z"/>
	<path class="st0" d="M26.1,12.2l-3.8-5h-3.9v5h-0.9v-12h5c2.6,0,4.3,1.4,4.3,3.4v0c0,2-1.5,3.2-3.5,3.4l4,5.1H26.1z M25.9,3.6
		C25.9,2,24.6,1,22.4,1h-4.1v5.4h4C24.4,6.4,25.9,5.4,25.9,3.6L25.9,3.6z"/>
	<path class="st0" d="M29.5,12.2v-12H38V1h-7.6v4.7h6.9v0.8h-6.9v4.8h7.7v0.8H29.5z"/>
	<path class="st0" d="M46.1,12.4c-3.4,0-6-2.7-6-6.2v0c0-3.4,2.5-6.2,6-6.2c2.1,0,3.4,0.8,4.7,1.9l-0.6,0.7c-1-1-2.2-1.8-4-1.8
		c-2.9,0-5.1,2.3-5.1,5.4v0c0,3,2.2,5.4,5.1,5.4c1.7,0,2.9-0.7,4.1-1.9l0.6,0.6C49.6,11.6,48.2,12.4,46.1,12.4z"/>
	<path class="st0" d="M57.2,1v11.2h-0.9V1h-4.2V0.2h9.3V1H57.2z"/>
	<path class="st0" d="M72.5,12.2h-4v-12h4c3.8,0,6.4,2.6,6.4,6v0C78.9,9.6,76.3,12.2,72.5,12.2z M78,6.2C78,3.4,75.9,1,72.5,1h-3.1
		v10.4h3.1C75.9,11.4,78,9.1,78,6.2L78,6.2z"/>
	<path class="st0" d="M81.6,12.2v-12h8.5V1h-7.6v4.7h6.9v0.8h-6.9v4.8h7.7v0.8H81.6z"/>
	<path class="st0" d="M96.9,7.7h-3.2v4.5h-0.9v-12h4.4c2.6,0,4.5,1.4,4.5,3.7v0C101.6,6.4,99.4,7.7,96.9,7.7z M100.7,3.9
		c0-1.9-1.5-2.9-3.6-2.9h-3.4v5.9H97C99.2,6.9,100.7,5.7,100.7,3.9L100.7,3.9z"/>
	<path class="st0" d="M109.4,12.4c-3.6,0-6-2.9-6-6.2v0c0-3.3,2.4-6.2,6-6.2s6,2.9,6,6.2c0,0,0,0,0,0C115.4,9.5,113,12.4,109.4,12.4
		z M114.5,6.2c0-3-2.2-5.4-5.1-5.4c-3,0-5.1,2.4-5.1,5.4v0c0,3,2.2,5.4,5.1,5.4C112.4,11.6,114.5,9.2,114.5,6.2L114.5,6.2z"/>
	<path class="st0" d="M122.2,12.4c-1.9,0-3.4-0.6-4.8-1.9l0.6-0.7c1.3,1.2,2.5,1.8,4.3,1.8c1.8,0,3-1,3-2.4v0c0-1.3-0.7-2-3.4-2.6
		c-2.9-0.6-4-1.6-4-3.4v0c0-1.8,1.6-3.2,3.9-3.2c1.7,0,2.9,0.5,4.1,1.5l-0.6,0.7c-1.1-1-2.3-1.4-3.6-1.4c-1.8,0-2.9,1-2.9,2.3v0
		c0,1.3,0.7,2,3.5,2.6c2.8,0.6,3.9,1.6,3.9,3.3v0C126.2,11,124.5,12.4,122.2,12.4z"/>
	<path class="st0" d="M128.9,12.2v-12h0.9v12H128.9z"/>
	<path class="st0" d="M137.4,1v11.2h-0.9V1h-4.2V0.2h9.3V1H137.4z"/>
</g>
</svg>
