<?xml version="1.0" encoding="utf-8"?>
<!-- Generator: Adobe Illustrator 22.1.0, SVG Export Plug-In . SVG Version: 6.00 Build 0)  -->
<svg version="1.1" id="Layer_1" xmlns="http://www.w3.org/2000/svg" xmlns:xlink="http://www.w3.org/1999/xlink" x="0px" y="0px"
	 viewBox="0 0 104.1 37.6" style="enable-background:new 0 0 104.1 37.6;" xml:space="preserve">
<style type="text/css">
	.st0{clip-path:url(#SVGID_2_);fill:#B8BABC;}
	.st1{clip-path:url(#SVGID_2_);fill:#2A333D;}
	.st2{fill:#E75024;}
</style>
<g>
	<g>
		<defs>
			<rect id="SVGID_1_" x="4" width="96" height="25.4"/>
		</defs>
		<clipPath id="SVGID_2_">
			<use xlink:href="#SVGID_1_"  style="overflow:visible;"/>
		</clipPath>
		<path class="st0" d="M4,20.7v-3.5l7.1-7.5H4.3V5.4h13.9V9l-7.1,7.5h7.1v4.3H4z M20.6,20.8V5.5H26v15.3L20.6,20.8L20.6,20.8z
			 M28.9,25.3V5.5h5.4v2c0.6-0.7,1.2-1.3,2-1.7C37.1,5.3,38,5.1,39,5.1c0.9,0,1.8,0.2,2.6,0.6c0.8,0.4,1.6,0.9,2.2,1.6
			c0.7,0.7,1.2,1.6,1.5,2.5c0.4,1.1,0.6,2.2,0.5,3.3v0.1c0,1.1-0.2,2.3-0.5,3.3c-0.3,0.9-0.8,1.8-1.5,2.6c-0.6,0.7-1.3,1.2-2.2,1.6
			c-0.8,0.4-1.7,0.6-2.6,0.6c-0.9,0-1.9-0.2-2.7-0.6c-0.8-0.4-1.4-1-2-1.6v6.4L28.9,25.3L28.9,25.3z M34.2,13.2
			c0,0.9,0.3,1.8,0.9,2.5c0.6,0.6,1.4,1,2.2,1c0.8,0,1.7-0.3,2.2-1c0.6-0.7,0.9-1.6,0.9-2.5v-0.1c0-0.9-0.3-1.8-0.9-2.5
			c-0.6-0.6-1.4-1-2.2-1c-0.8,0-1.7,0.4-2.2,1C34.5,11.3,34.2,12.2,34.2,13.2L34.2,13.2z"/>
		<path class="st1" d="M48.4,20.1V0.3h8.5c2.5,0,4.5,0.6,6,1.8c1.5,1.2,2.2,2.9,2.2,5.1v0.1c0,1.4-0.4,2.7-1.1,3.9
			c-0.7,1.1-1.8,1.9-3,2.4c-1.4,0.5-2.9,0.8-4.4,0.8h-2.7v5.7H48.4z M53.9,10.2h2.6c1,0,1.7-0.2,2.3-0.7c0.6-0.5,0.9-1.2,0.8-1.9
			V7.5c0-0.7-0.3-1.5-0.8-2c-0.5-0.5-1.3-0.7-2.3-0.7h-2.6V10.2z M66.4,15.8L66.4,15.8c0-1.6,0.5-2.8,1.6-3.6
			c1.1-0.8,2.6-1.2,4.4-1.2c1.3,0,2.5,0.2,3.7,0.6v-0.3c0-1.7-1-2.5-3.1-2.5c-1.4,0-2.9,0.3-4.2,0.8l-1.1-3.8c2-0.8,4.1-1.2,6.2-1.2
			c2.7,0,4.6,0.6,5.8,1.9c1.1,1.1,1.6,2.7,1.6,4.9v8.8H76v-1.6c-1.2,1.3-2.7,1.9-4.5,1.9c-1.5,0-2.8-0.4-3.7-1.2
			C66.8,18.4,66.4,17.2,66.4,15.8 M71.5,15.4c0,0.5,0.2,0.9,0.5,1.2c0.4,0.3,0.9,0.5,1.4,0.4c0.7,0,1.4-0.2,1.9-0.7
			c0.5-0.5,0.8-1.1,0.7-1.8v-0.7c-0.7-0.3-1.4-0.4-2.1-0.4c-0.6,0-1.3,0.1-1.8,0.5C71.7,14.3,71.5,14.8,71.5,15.4L71.5,15.4
			L71.5,15.4z M82.9,4.8h5.6l3,9.2l2.9-9.2h5.5l-5.6,14.9c-0.7,1.8-1.4,3.1-2.3,3.9c-0.9,0.8-2,1.1-3.5,1.1c-1.7,0-3.4-0.5-4.9-1.3
			l1.7-3.8c0.9,0.5,1.7,0.8,2.3,0.8c0.5,0,1-0.2,1.2-0.6L82.9,4.8z"/>
	</g>
	<polygon class="st2" points="29.1,0 20.6,0 20.5,4 	"/>
	<g>
		<path d="M3.9,34.1c0.6,0.1,0.9,0.3,1.2,0.5c0.3,0.3,0.5,0.7,0.5,1.1c0,1.1-0.9,1.7-2.3,1.7H0v-0.2c0.8,0,0.9-0.2,0.9-0.9v-4.2
			c0-0.8-0.1-0.9-0.9-0.9V31h2.7c1.7,0,2.5,0.6,2.5,1.6c0,0.4-0.2,0.8-0.4,1C4.6,33.9,4.4,34,3.9,34.1L3.9,34.1z M2.8,33.9
			c1,0,1.5-0.4,1.5-1.2c0-0.8-0.6-1.3-1.7-1.3H2.2c-0.2,0-0.2,0.1-0.2,0.3v2.2H2.8z M1.9,36.7c0,0.3,0.2,0.4,0.6,0.4
			c0.8,0,1.2,0,1.6-0.4c0.2-0.2,0.4-0.5,0.4-1c0-0.5-0.1-0.8-0.5-1c-0.6-0.4-0.9-0.3-2.1-0.4V36.7z"/>
		<path d="M13.1,31.2c-0.8,0.1-0.9,0.3-0.9,1.2v2.5c0,0.9-0.1,1.5-0.5,2c-0.4,0.5-1.1,0.7-2,0.7c-0.7,0-1.2-0.1-1.6-0.4
			c-0.5-0.4-0.8-1.1-0.8-2.1v-3c0-0.6-0.1-0.8-0.9-0.8V31h2.7v0.2c-0.8,0.1-0.9,0.2-0.9,0.9v3c0,0.8,0,1.2,0.4,1.6
			C9,37,9.4,37.2,10,37.2c0.6,0,1.2-0.2,1.5-0.6c0.3-0.4,0.4-0.8,0.4-1.6v-2.5c0-1-0.1-1.2-0.9-1.3V31h2.2V31.2z"/>
		<path d="M20.1,31.2c-0.6,0-0.8,0.3-1.3,1.1l-1.4,2.2v1.9c0,0.8,0.2,0.9,1,0.9v0.2h-3v-0.2c0.9-0.1,1-0.1,1-1v-1.7l-1.3-1.9
			c-0.9-1.3-1.1-1.5-1.6-1.5V31h2.7v0.2l-0.2,0c-0.3,0-0.5,0.1-0.5,0.3c0,0.1,0.1,0.3,0.2,0.5l1.4,2.1l1.4-2.2
			c0.1-0.1,0.1-0.3,0.1-0.4c0-0.2-0.2-0.3-0.7-0.3V31h2.1V31.2z"/>
		<path d="M29.6,31.2c-0.4,0-0.5,0.1-0.6,0.2c-0.2,0.2-0.3,0.4-0.3,1.1v5h-0.2l-4.3-5.3V36c0,1,0.2,1.2,0.9,1.3v0.2h-2.3v-0.2
			c0.8-0.1,0.9-0.2,0.9-1.3v-4.3c-0.3-0.4-0.5-0.5-0.9-0.5V31h1.6l3.7,4.7v-3.3c0-0.5,0-0.8-0.2-0.9c-0.2-0.2-0.3-0.2-0.8-0.3V31
			h2.3V31.2z"/>
		<path d="M33.1,37.6c-1.9,0-3.2-1.4-3.2-3.4c0-2,1.3-3.3,3.2-3.3c1.9,0,3.2,1.4,3.2,3.3C36.3,36.3,35,37.6,33.1,37.6z M34.3,31.7
			c-0.3-0.3-0.7-0.5-1.2-0.5c-0.5,0-1,0.2-1.4,0.6c-0.4,0.5-0.7,1.4-0.7,2.3c0,1.2,0.3,2,0.9,2.6c0.3,0.3,0.8,0.4,1.2,0.4
			c0.5,0,0.9-0.1,1.2-0.5c0.5-0.5,0.8-1.4,0.8-2.6C35.2,33.1,34.8,32.2,34.3,31.7z"/>
		<path d="M45.4,31.2c-0.5,0.1-0.6,0.2-0.8,0.7c-1.1,2.8-1.2,3.1-2,5.7h-0.1c-0.5-1.4-1-2.8-1.6-4.1l-1.5,4.1h-0.1
			c-0.6-1.7-1.3-3.5-1.9-5.2c-0.3-0.9-0.5-1.2-1-1.2V31h2.4v0.2c-0.5,0-0.6,0.1-0.6,0.3c0,0.1,0,0.3,0.1,0.5l1.4,3.6l1-2.7l-0.3-0.7
			c-0.3-0.9-0.4-0.9-1-0.9V31H42v0.2c-0.5,0-0.7,0.1-0.7,0.3c0,0.1,0.1,0.3,0.2,0.6l1.4,3.5l1.2-3.3c0.1-0.3,0.2-0.5,0.2-0.7
			c0-0.3-0.2-0.4-0.7-0.4V31h1.9V31.2z"/>
		<path d="M55.4,31c1,0,1.7,0.2,2.1,0.6c0.3,0.3,0.5,0.7,0.5,1.2c0,0.5-0.2,0.9-0.6,1.3c-0.6,0.5-1,0.6-2.1,0.6c-0.3,0-0.4,0-0.7,0
			v1.7c0,0.7,0.1,0.9,0.9,0.9v0.2h-2.7v-0.2c0.8-0.1,0.8-0.2,0.8-1v-4.2c0-0.7-0.1-0.8-0.8-0.9V31H55.4z M54.7,34.3
			c0.2,0,0.4,0,0.6,0c1.1,0,1.6-0.6,1.6-1.4c0-1.1-0.6-1.5-1.9-1.5c-0.3,0-0.3,0.1-0.3,0.3V34.3z"/>
		<path d="M62,37.5v-0.2c0.3,0,0.4,0,0.5-0.1c0.1,0,0.1-0.1,0.1-0.2c0-0.1-0.1-0.4-0.2-0.7l-0.4-0.9h-2.5l-0.4,1.1
			c0,0.1-0.1,0.3-0.1,0.4c0,0.3,0.2,0.4,0.7,0.4v0.2h-1.9v-0.2c0.6-0.1,0.6-0.3,1.2-1.6l2-4.7h0.2l2.4,5.5c0.3,0.6,0.4,0.8,0.9,0.9
			v0.2H62z M60.8,32.3L59.7,35h2.2L60.8,32.3z"/>
		<path d="M70.9,31.2c-0.6,0-0.8,0.3-1.3,1.1l-1.4,2.2v1.9c0,0.8,0.2,0.9,1,0.9v0.2h-3v-0.2c0.9-0.1,1-0.1,1-1v-1.7l-1.3-1.9
			c-0.9-1.3-1.1-1.5-1.6-1.5V31H67v0.2l-0.2,0c-0.3,0-0.5,0.1-0.5,0.3c0,0.1,0.1,0.3,0.2,0.5l1.4,2.1l1.4-2.2
			c0.1-0.1,0.1-0.3,0.1-0.4c0-0.2-0.2-0.3-0.7-0.3V31h2.1V31.2z"/>
		<path d="M78.8,37.5h-5.2v-0.2c0.7,0,0.8-0.2,0.8-0.9v-4.2c0-0.7-0.1-0.9-0.8-0.9V31h2.7v0.2c-0.8,0-0.9,0.2-0.9,0.9v4.5
			c0,0.4,0.2,0.4,0.9,0.4H77c0.8,0,1.3-0.2,1.6-0.6c0.1-0.2,0.3-0.4,0.4-0.7h0.3L78.8,37.5z"/>
		<path d="M83.8,37.5v-0.2c0.3,0,0.4,0,0.5-0.1c0.1,0,0.1-0.1,0.1-0.2c0-0.1-0.1-0.4-0.2-0.7l-0.4-0.9h-2.5l-0.4,1.1
			c0,0.1-0.1,0.3-0.1,0.4c0,0.3,0.2,0.4,0.7,0.4v0.2h-1.9v-0.2c0.6-0.1,0.6-0.3,1.2-1.6l2-4.7H83l2.4,5.5c0.3,0.6,0.4,0.8,0.9,0.9
			v0.2H83.8z M82.6,32.3L81.5,35h2.2L82.6,32.3z"/>
		<path d="M91.4,32.7c-0.2-1.1-0.5-1.2-1.5-1.2h-0.6v4.9c0,0.7,0.1,0.9,0.9,0.9v0.2h-2.8v-0.2c0.8,0,0.9-0.2,0.9-1v-4.8h-0.6
			c-1,0-1.3,0.2-1.5,1.2h-0.2l0.1-1.6h5.4l0.1,1.6H91.4z"/>
		<path d="M97.1,37.5h-5.2v-0.2c0.7,0,0.8-0.2,0.8-0.9v-4.2c0-0.7-0.1-0.9-0.8-0.9V31h5.1l0,1.4h-0.2c-0.1-0.9-0.4-1-1.5-1h-1.3
			c-0.3,0-0.3,0-0.3,0.3v2.1h1.5c0.8,0,1-0.2,1.1-0.9h0.2v2.3h-0.2c-0.1-0.8-0.3-0.9-1.1-0.9h-1.5v2.4c0,0.4,0.3,0.5,1,0.5h0.3
			c1.4,0,1.8-0.3,2.2-1.3h0.3L97.1,37.5z"/>
		<path d="M102.6,37.5l-2.3-3l-0.5,0v1.9c0,0.7,0.1,0.9,0.9,0.9v0.2h-2.7v-0.2c0.7-0.1,0.8-0.2,0.8-1v-4.1c0-0.7-0.1-0.8-0.8-0.9V31
			h2.6c0.9,0,1.6,0.2,2,0.6c0.3,0.3,0.5,0.7,0.5,1.2c0,0.8-0.5,1.4-1.8,1.6l1.9,2.5c0.3,0.4,0.5,0.4,0.9,0.5v0.2H102.6z M99.7,34.1
			c0.9,0,1.3-0.1,1.7-0.3c0.3-0.2,0.6-0.6,0.6-1.1c0-0.9-0.6-1.3-1.8-1.3c-0.3,0-0.5,0.1-0.5,0.4V34.1z"/>
	</g>
	<g>
		<path d="M48.9,34.7c-0.3,0-0.5-0.2-0.5-0.5s0.2-0.5,0.5-0.5c0.3,0,0.5,0.3,0.5,0.6C49.5,34.4,49.2,34.7,48.9,34.7z"/>
	</g>
</g>
</svg>
